<svg xmlns="http://www.w3.org/2000/svg" xmlns:xlink="http://www.w3.org/1999/xlink" width="219" zoomAndPan="magnify" viewBox="0 0 164.25 70.499998" height="94" preserveAspectRatio="xMidYMid meet" version="1.0"><defs><g/><clipPath id="cb0fdb30cf"><path d="M 0.207031 0 L 62 0 L 62 62 L 0.207031 62 Z M 0.207031 0 " clip-rule="nonzero"/></clipPath><clipPath id="cc6ca5c8fd"><path d="M 0.207031 0 L 62.761719 0 L 62.761719 62.554688 L 0.207031 62.554688 Z M 0.207031 0 " clip-rule="nonzero"/></clipPath><clipPath id="ecfa75678a"><path d="M 59 59 L 63 59 L 63 63 L 59 63 Z M 59 59 " clip-rule="nonzero"/></clipPath><clipPath id="08612e16a7"><path d="M 63.34375 61.828125 L 61.761719 63.40625 L 30.167969 31.8125 L 31.746094 30.234375 Z M 63.34375 61.828125 " clip-rule="nonzero"/></clipPath><clipPath id="32b3644355"><path d="M 63.34375 61.828125 L 61.761719 63.40625 L 30.167969 31.8125 L 31.746094 30.234375 Z M 63.34375 61.828125 " clip-rule="nonzero"/></clipPath><clipPath id="0abdd57f2a"><path d="M 57 57 L 64 57 L 64 64 L 57 64 Z M 57 57 " clip-rule="nonzero"/></clipPath><clipPath id="e9e3c2199a"><path d="M 63.34375 61.828125 L 61.761719 63.40625 L 30.167969 31.8125 L 31.746094 30.234375 Z M 63.34375 61.828125 " clip-rule="nonzero"/></clipPath><clipPath id="dde55bccc2"><path d="M 63.34375 61.828125 L 61.761719 63.40625 L 30.167969 31.8125 L 31.746094 30.234375 Z M 63.34375 61.828125 " clip-rule="nonzero"/></clipPath><clipPath id="2350c81011"><path d="M 30 31 L 33 31 L 33 34 L 30 34 Z M 30 31 " clip-rule="nonzero"/></clipPath><clipPath id="0c170df498"><path d="M 63.34375 61.828125 L 61.761719 63.40625 L 30.167969 31.8125 L 31.746094 30.234375 Z M 63.34375 61.828125 " clip-rule="nonzero"/></clipPath><clipPath id="bfed16e9e9"><path d="M 63.34375 61.828125 L 61.761719 63.40625 L 30.167969 31.8125 L 31.746094 30.234375 Z M 63.34375 61.828125 " clip-rule="nonzero"/></clipPath><clipPath id="9d0d80a568"><path d="M 30 30 L 35 30 L 35 35 L 30 35 Z M 30 30 " clip-rule="nonzero"/></clipPath><clipPath id="a6fd1f2f17"><path d="M 63.34375 61.828125 L 61.761719 63.40625 L 30.167969 31.8125 L 31.746094 30.234375 Z M 63.34375 61.828125 " clip-rule="nonzero"/></clipPath><clipPath id="efcfa1f3c1"><path d="M 63.34375 61.828125 L 61.761719 63.40625 L 30.167969 31.8125 L 31.746094 30.234375 Z M 63.34375 61.828125 " clip-rule="nonzero"/></clipPath><clipPath id="41edb00e9b"><path d="M 32 32 L 61 32 L 61 62 L 32 62 Z M 32 32 " clip-rule="nonzero"/></clipPath><clipPath id="57eb52be23"><path d="M 63.34375 61.828125 L 61.761719 63.40625 L 30.167969 31.8125 L 31.746094 30.234375 Z M 63.34375 61.828125 " clip-rule="nonzero"/></clipPath><clipPath id="268595442f"><path d="M 63.34375 61.828125 L 61.761719 63.40625 L 30.167969 31.8125 L 31.746094 30.234375 Z M 63.34375 61.828125 " clip-rule="nonzero"/></clipPath><clipPath id="51fb7324ad"><path d="M 30 30 L 63 30 L 63 63 L 30 63 Z M 30 30 " clip-rule="nonzero"/></clipPath><clipPath id="770dbcc8a6"><path d="M 63.34375 61.828125 L 61.761719 63.40625 L 30.167969 31.8125 L 31.746094 30.234375 Z M 63.34375 61.828125 " clip-rule="nonzero"/></clipPath><clipPath id="fbc7e59eb3"><path d="M 63.34375 61.828125 L 61.761719 63.40625 L 30.167969 31.8125 L 31.746094 30.234375 Z M 63.34375 61.828125 " clip-rule="nonzero"/></clipPath><clipPath id="6c0655a060"><path d="M 58 58 L 61 58 L 61 62 L 58 62 Z M 58 58 " clip-rule="nonzero"/></clipPath><clipPath id="8cb60b81f7"><path d="M 63.34375 61.828125 L 61.761719 63.40625 L 30.167969 31.8125 L 31.746094 30.234375 Z M 63.34375 61.828125 " clip-rule="nonzero"/></clipPath><clipPath id="f004079bc6"><path d="M 63.34375 61.828125 L 61.761719 63.40625 L 30.167969 31.8125 L 31.746094 30.234375 Z M 63.34375 61.828125 " clip-rule="nonzero"/></clipPath><clipPath id="ea11ef7b6b"><path d="M 56 56 L 63 56 L 63 63 L 56 63 Z M 56 56 " clip-rule="nonzero"/></clipPath><clipPath id="f27f8fa419"><path d="M 63.34375 61.828125 L 61.761719 63.40625 L 30.167969 31.8125 L 31.746094 30.234375 Z M 63.34375 61.828125 " clip-rule="nonzero"/></clipPath><clipPath id="2c173bf476"><path d="M 63.34375 61.828125 L 61.761719 63.40625 L 30.167969 31.8125 L 31.746094 30.234375 Z M 63.34375 61.828125 " clip-rule="nonzero"/></clipPath></defs><g fill="#fafbfc" fill-opacity="1"><g transform="translate(63.346672, 49.064681)"><g><path d="M 6.578125 -14.875 L 6.578125 -7.796875 C 6.578125 -6.328125 6.800781 -5.28125 7.25 -4.65625 C 7.695312 -4.039062 8.453125 -3.734375 9.515625 -3.734375 C 10.578125 -3.734375 11.328125 -4.039062 11.765625 -4.65625 C 12.210938 -5.28125 12.4375 -6.328125 12.4375 -7.796875 L 12.4375 -14.875 L 17.578125 -14.875 L 17.578125 -6.546875 C 17.578125 -4.078125 16.929688 -2.296875 15.640625 -1.203125 C 14.359375 -0.109375 12.316406 0.4375 9.515625 0.4375 C 6.710938 0.4375 4.664062 -0.109375 3.375 -1.203125 C 2.09375 -2.296875 1.453125 -4.078125 1.453125 -6.546875 L 1.453125 -14.875 Z M 6.578125 -14.875 "/></g></g></g><g fill="#fafbfc" fill-opacity="1"><g transform="translate(82.369044, 49.064681)"><g><path d="M 1.734375 0 L 1.734375 -14.875 L 6.875 -14.875 L 6.875 -12.734375 L 6.9375 -12.734375 C 6.96875 -12.804688 7.023438 -12.898438 7.109375 -13.015625 C 7.203125 -13.128906 7.394531 -13.332031 7.6875 -13.625 C 7.976562 -13.914062 8.285156 -14.175781 8.609375 -14.40625 C 8.941406 -14.644531 9.367188 -14.851562 9.890625 -15.03125 C 10.410156 -15.21875 10.941406 -15.3125 11.484375 -15.3125 C 12.046875 -15.3125 12.597656 -15.234375 13.140625 -15.078125 C 13.679688 -14.921875 14.078125 -14.765625 14.328125 -14.609375 L 14.734375 -14.390625 L 12.59375 -10.03125 C 11.945312 -10.570312 11.054688 -10.84375 9.921875 -10.84375 C 9.296875 -10.84375 8.757812 -10.707031 8.3125 -10.4375 C 7.875 -10.164062 7.5625 -9.835938 7.375 -9.453125 C 7.195312 -9.066406 7.066406 -8.738281 6.984375 -8.46875 C 6.910156 -8.195312 6.875 -7.984375 6.875 -7.828125 L 6.875 0 Z M 1.734375 0 "/></g></g></g><g fill="#fafbfc" fill-opacity="1"><g transform="translate(96.809812, 49.064681)"><g><path d="M 2.75 -1.84375 C 1.363281 -3.363281 0.671875 -5.222656 0.671875 -7.421875 C 0.671875 -9.628906 1.363281 -11.492188 2.75 -13.015625 C 4.144531 -14.546875 5.914062 -15.3125 8.0625 -15.3125 C 10.03125 -15.3125 11.65625 -14.691406 12.9375 -13.453125 L 12.9375 -14.875 L 18.0625 -14.875 L 18.0625 0 L 12.984375 0 L 12.984375 -1.6875 L 12.9375 -1.6875 C 11.65625 -0.269531 10.03125 0.4375 8.0625 0.4375 C 5.914062 0.4375 4.144531 -0.320312 2.75 -1.84375 Z M 7.125 -9.953125 C 6.457031 -9.296875 6.125 -8.453125 6.125 -7.421875 C 6.125 -6.398438 6.441406 -5.5625 7.078125 -4.90625 C 7.710938 -4.257812 8.550781 -3.9375 9.59375 -3.9375 C 10.601562 -3.9375 11.429688 -4.265625 12.078125 -4.921875 C 12.722656 -5.585938 13.046875 -6.421875 13.046875 -7.421875 C 13.046875 -8.453125 12.710938 -9.296875 12.046875 -9.953125 C 11.378906 -10.609375 10.5625 -10.9375 9.59375 -10.9375 C 8.613281 -10.9375 7.789062 -10.609375 7.125 -9.953125 Z M 7.125 -9.953125 "/></g></g></g><g fill="#fafbfc" fill-opacity="1"><g transform="translate(116.615118, 49.064681)"><g><path d="M 2.609375 -14.875 L 2.609375 -20.421875 L 7.75 -20.421875 L 7.75 -14.875 L 10.875 -14.875 L 10.875 -10.96875 L 7.75 -10.96875 L 7.75 -6.234375 C 7.75 -4.859375 8.132812 -4.171875 8.90625 -4.171875 C 9.09375 -4.171875 9.289062 -4.207031 9.5 -4.28125 C 9.71875 -4.363281 9.882812 -4.445312 10 -4.53125 L 10.171875 -4.640625 L 11.453125 -0.5 C 10.347656 0.125 9.09375 0.4375 7.6875 0.4375 C 6.71875 0.4375 5.882812 0.269531 5.1875 -0.0625 C 4.488281 -0.40625 3.960938 -0.863281 3.609375 -1.4375 C 3.253906 -2.007812 3 -2.609375 2.84375 -3.234375 C 2.6875 -3.859375 2.609375 -4.53125 2.609375 -5.25 L 2.609375 -10.96875 L 0.46875 -10.96875 L 0.46875 -14.875 Z M 2.609375 -14.875 "/></g></g></g><g fill="#fafbfc" fill-opacity="1"><g transform="translate(128.069138, 49.064681)"><g><path d="M 1.734375 0 L 1.734375 -14.875 L 6.875 -14.875 L 6.875 -12.734375 L 6.9375 -12.734375 C 6.96875 -12.804688 7.023438 -12.898438 7.109375 -13.015625 C 7.203125 -13.128906 7.394531 -13.332031 7.6875 -13.625 C 7.976562 -13.914062 8.285156 -14.175781 8.609375 -14.40625 C 8.941406 -14.644531 9.367188 -14.851562 9.890625 -15.03125 C 10.410156 -15.21875 10.941406 -15.3125 11.484375 -15.3125 C 12.046875 -15.3125 12.597656 -15.234375 13.140625 -15.078125 C 13.679688 -14.921875 14.078125 -14.765625 14.328125 -14.609375 L 14.734375 -14.390625 L 12.59375 -10.03125 C 11.945312 -10.570312 11.054688 -10.84375 9.921875 -10.84375 C 9.296875 -10.84375 8.757812 -10.707031 8.3125 -10.4375 C 7.875 -10.164062 7.5625 -9.835938 7.375 -9.453125 C 7.195312 -9.066406 7.066406 -8.738281 6.984375 -8.46875 C 6.910156 -8.195312 6.875 -7.984375 6.875 -7.828125 L 6.875 0 Z M 1.734375 0 "/></g></g></g><g clip-path="url(#cb0fdb30cf)"><path fill="#ffffff" d="M 31.425781 0.699219 C 14.570312 0.699219 0.902344 14.363281 0.902344 31.21875 C 0.902344 48.078125 14.570312 61.742188 31.425781 61.742188 C 48.28125 61.742188 61.949219 48.078125 61.949219 31.21875 C 61.949219 14.363281 48.28125 0.699219 31.425781 0.699219 Z M 48.101562 47.898438 C 43.648438 52.351562 37.726562 54.804688 31.425781 54.804688 C 25.125 54.804688 19.203125 52.351562 14.75 47.898438 C 10.292969 43.441406 7.839844 37.519531 7.839844 31.21875 C 7.839844 24.921875 10.292969 18.996094 14.75 14.542969 C 19.203125 10.089844 25.125 7.632812 31.425781 7.632812 C 37.726562 7.632812 43.648438 10.089844 48.101562 14.542969 C 52.558594 18.996094 55.011719 24.921875 55.011719 31.21875 C 55.011719 37.519531 52.558594 43.441406 48.101562 47.898438 Z M 48.101562 47.898438 " fill-opacity="1" fill-rule="nonzero"/></g><g clip-path="url(#cc6ca5c8fd)"><path fill="#000000" d="M 31.425781 62.441406 C 14.210938 62.441406 0.207031 48.433594 0.207031 31.21875 C 0.207031 14.003906 14.210938 0 31.425781 0 C 48.640625 0 62.644531 14.003906 62.644531 31.21875 C 62.644531 48.433594 48.640625 62.441406 31.425781 62.441406 Z M 31.425781 1.394531 C 14.980469 1.394531 1.601562 14.773438 1.601562 31.21875 C 1.601562 47.664062 14.980469 61.042969 31.425781 61.042969 C 47.871094 61.042969 61.25 47.664062 61.25 31.21875 C 61.25 14.773438 47.871094 1.394531 31.425781 1.394531 Z M 31.425781 55.503906 C 24.941406 55.503906 18.84375 52.976562 14.253906 48.390625 C 9.667969 43.804688 7.140625 37.707031 7.140625 31.21875 C 7.140625 24.734375 9.667969 18.636719 14.253906 14.050781 C 18.84375 9.460938 24.941406 6.9375 31.425781 6.9375 C 37.914062 6.9375 44.011719 9.460938 48.597656 14.050781 C 53.183594 18.636719 55.710938 24.734375 55.710938 31.21875 C 55.710938 37.707031 53.183594 43.804688 48.597656 48.390625 C 44.011719 52.976562 37.914062 55.503906 31.425781 55.503906 Z M 31.425781 8.332031 C 25.3125 8.332031 19.5625 10.710938 15.242188 15.035156 C 10.917969 19.359375 8.539062 25.105469 8.539062 31.21875 C 8.539062 37.332031 10.917969 43.082031 15.242188 47.402344 C 19.566406 51.726562 25.3125 54.105469 31.425781 54.105469 C 37.539062 54.105469 43.289062 51.726562 47.609375 47.402344 C 51.933594 43.082031 54.3125 37.332031 54.3125 31.21875 C 54.3125 25.105469 51.933594 19.359375 47.609375 15.035156 C 43.289062 10.710938 37.539062 8.332031 31.425781 8.332031 Z M 31.425781 8.332031 " fill-opacity="1" fill-rule="nonzero"/></g><g clip-path="url(#ecfa75678a)"><g clip-path="url(#08612e16a7)"><g clip-path="url(#32b3644355)"><path fill="#ffffff" d="M 62.429688 62.660156 C 61.980469 63.113281 61.246094 63.113281 60.796875 62.660156 L 59.222656 61.089844 L 60.855469 59.457031 L 62.429688 61.027344 C 62.878906 61.480469 62.878906 62.210938 62.429688 62.660156 Z M 62.429688 62.660156 " fill-opacity="1" fill-rule="nonzero"/></g></g></g><g clip-path="url(#0abdd57f2a)"><g clip-path="url(#e9e3c2199a)"><g clip-path="url(#dde55bccc2)"><path stroke-linecap="butt" transform="matrix(-0.0795614, 0.0795614, -0.0795614, -0.0795614, 63.325153, 61.845165)" fill="none" stroke-linejoin="miter" d="M 10.749292 0.505732 C 16.420032 0.481183 21.03518 5.096331 21.010632 10.767072 L 21.03518 30.528744 L 0.5125 30.528744 L 0.487951 10.767072 C 0.5125 5.096331 5.1031 0.505732 10.749292 0.505732 Z M 10.749292 0.505732 " stroke="#231f20" stroke-width="1" stroke-opacity="1" stroke-miterlimit="10"/></g></g></g><g clip-path="url(#2350c81011)"><g clip-path="url(#0c170df498)"><g clip-path="url(#bfed16e9e9)"><path fill="#ffffff" d="M 32.058594 33.179688 C 31.304688 32.171875 30.808594 31.367188 30.972656 31.203125 C 31.132812 31.039062 31.941406 31.539062 32.949219 32.289062 Z M 32.058594 33.179688 " fill-opacity="1" fill-rule="nonzero"/></g></g></g><g clip-path="url(#9d0d80a568)"><g clip-path="url(#a6fd1f2f17)"><g clip-path="url(#efcfa1f3c1)"><path stroke-linecap="butt" transform="matrix(-0.0795614, 0.0795614, -0.0795614, -0.0795614, 63.325153, 61.845165)" fill="none" stroke-linejoin="miter" d="M 16.346386 376.640314 C 14.750723 387.71176 12.811379 395.886465 10.749292 395.886465 C 8.711753 395.911013 6.772408 387.687212 5.152197 376.640314 Z M 16.346386 376.640314 " stroke="#231f20" stroke-width="1" stroke-opacity="1" stroke-miterlimit="10"/></g></g></g><g clip-path="url(#41edb00e9b)"><g clip-path="url(#57eb52be23)"><g clip-path="url(#268595442f)"><path fill="#ffffff" d="M 59.222656 61.089844 L 36.113281 37.976562 C 35.441406 37.304688 33.367188 34.9375 32.058594 33.179688 L 32.949219 32.289062 C 34.703125 33.597656 37.074219 35.671875 37.746094 36.34375 L 60.855469 59.457031 Z M 59.222656 61.089844 " fill-opacity="1" fill-rule="nonzero"/></g></g></g><g clip-path="url(#51fb7324ad)"><g clip-path="url(#770dbcc8a6)"><g clip-path="url(#fbc7e59eb3)"><path stroke-linecap="butt" transform="matrix(-0.0795614, 0.0795614, -0.0795614, -0.0795614, 63.325153, 61.845165)" fill="none" stroke-linejoin="miter" d="M 21.03518 30.528744 L 21.010632 321.013049 C 21.010632 329.457788 19.169482 357.369616 16.346386 376.640314 L 5.152197 376.640314 C 2.35365 357.394164 0.487951 329.457788 0.487951 321.013049 L 0.5125 30.528744 Z M 21.03518 30.528744 " stroke="#231f20" stroke-width="1" stroke-opacity="1" stroke-miterlimit="10"/></g></g></g><g clip-path="url(#6c0655a060)"><g clip-path="url(#8cb60b81f7)"><g clip-path="url(#f004079bc6)"><path fill="#000000" d="M 60.894531 59.496094 L 59.261719 61.128906 L 58.121094 59.988281 L 59.753906 58.355469 Z M 60.894531 59.496094 " fill-opacity="1" fill-rule="nonzero"/></g></g></g><g clip-path="url(#ea11ef7b6b)"><g clip-path="url(#f27f8fa419)"><g clip-path="url(#2c173bf476)"><path stroke-linecap="butt" transform="matrix(-0.0795614, 0.0795614, -0.0795614, -0.0795614, 63.325153, 61.845165)" fill="none" stroke-linejoin="miter" d="M 0.5125 30.037771 L 21.03518 30.037771 L 21.03518 44.374189 L 0.5125 44.374189 Z M 0.5125 30.037771 " stroke="#231f20" stroke-width="1" stroke-opacity="1" stroke-miterlimit="10"/></g></g></g></svg>